<svg xmlns="http://www.w3.org/2000/svg" xmlns:xlink="http://www.w3.org/1999/xlink" version="1.1" id="Layer_1" x="0px" y="0px" viewBox="0 0 2000 2000" style="enable-background:new 0 0 2000 2000;" xml:space="preserve">
<style type="text/css">
	.st0{fill:#F2C318;}
	.st1{fill:#19B251;}
	.st2{fill:#F26632;}
	.st3{fill:#FFFFFF;}
	.st4{fill:#4F4F4F;}
	.st5{fill:#383839;}
</style>
<g>
	<g>
		<path class="st0" d="M787.99,1802.87V1584.1H580.27c-46.66,0-91.5-37.6-99.78-83.49L307.76,537.26    c-2.31-12.75-1.53-25.88,2.29-38.26l-6.57,0.74c-43.51,4.76-74.92,43.88-70.17,87.39c0.22,2.05,0.53,4.1,0.91,6.13l172.73,963.31    c8.28,45.88,53.16,83.49,99.78,83.49h207.73v236.23L787.99,1802.87z"/>
	</g>
	<g>
		<path class="st1" d="M906.67,1701.3v-218.93H698.95c-46.66,0-91.54-37.6-99.78-83.49L426.44,435.54    c-2.3-12.76-1.5-25.88,2.33-38.26l-6.69,0.82c-43.49,4.75-74.89,43.85-70.14,87.34c0.22,2,0.51,4,0.89,5.98l172.77,963.27    c8.2,45.92,53.12,83.53,99.78,83.53h207.69v236.23L906.67,1701.3z"/>
	</g>
	<g>
		<path class="st1" d="M1585.38,1482.38h-357.16l-54.44,56h337.99c36.52-0.54,69.21-22.79,83.1-56.58    C1591.72,1482.16,1588.55,1482.36,1585.38,1482.38z"/>
	</g>
	<g>
		<path class="st2" d="M1687.81,171.16L523.5,309.39c-43.51,4.78-74.9,43.92-70.13,87.42c0.22,1.98,0.51,3.95,0.87,5.9l172.77,963.5    c8.24,45.92,53.16,83.45,99.78,83.45h207.73v236.27l236.73-236.27h441.97c47.35-0.63,86.32-37.42,89.67-84.65l64.39-1119.16    C1769.97,199.27,1734.47,165.67,1687.81,171.16z"/>
	</g>
	<g>
		<path class="st3" d="M845.78,626.58v97.87h-70.73V498.92h70.73v95l64.71-95h80.03l-77.77,108.06l82.9,117.47h-84.19L845.78,626.58    z"/>
	</g>
	<g>
		<path class="st3" d="M1140.96,636.46h-67.23v88h-70.77V498.92h70.77v81.27h67.23v-81.27h70.77v225.54h-70.77V636.46z"/>
	</g>
	<g>
		<path class="st3" d="M1223.2,498.77h70.46v127.19c0,19.44,7.78,33.79,28.97,33.79s29.98-14.35,29.98-33.79V498.77h70.46v127.19    c0,66.61-45.61,100.71-102,100.71c-56.38,0-97.87-34.1-97.87-100.71L1223.2,498.77z"/>
	</g>
	<g>
		<path class="st3" d="M1505.32,498.77v172.07h68.21v53.55h-138.98V498.84L1505.32,498.77z"/>
	</g>
	<g>
		<path class="st3" d="M918.49,1017.54v199.4H774.31V757.12h144.19v193.69l131.82-193.53h163.09l-158.46,220.17l168.88,239.65    h-171.49L918.49,1017.54z"/>
	</g>
	<g>
		<path class="st3" d="M1545.17,872.07h-162.35v56.5h142.87v108.45h-142.87V1102h162.35v114.95h-306.53V757.12h306.53V872.07z"/>
	</g>
	<g>
		<path class="st0" d="M1466.74,1584.1h-337.29l-54.44,56h318.04c36.53-0.55,69.22-22.8,83.14-56.58    C1473.05,1583.88,1469.9,1584.08,1466.74,1584.1z"/>
	</g>
</g>
<g>
	<path class="st4" d="M1762.09,1260.1v126.72c0,18.34-14.82,33.27-33.27,33.27H1368.1c-18.12,0-32.72-14.6-32.72-32.72v-105.63   c0-18.01,14.49-32.5,32.5-32.5h224.77l0.33,0.11h116.77l2.14-36.57l16.47,2.75c3.18,0.44,6.37,1.32,9.22,2.86   C1752.64,1226.72,1762.09,1242.64,1762.09,1260.1z"/>
</g>
<g>
	<path class="st3" d="M1446.87,1343.2c2.79,2.21,4.98,4.95,6.63,8.21c1.62,3.27,2.44,6.75,2.44,10.46c0,4.68-1.19,8.88-3.57,12.63   c-2.39,3.76-5.85,6.71-10.39,8.87c-4.55,2.16-9.91,3.24-16.09,3.24h-34.42v-92.27h33.09c6.26,0,11.61,1.03,16.02,3.11   c4.42,2.07,7.72,4.88,9.93,8.4c2.21,3.53,3.31,7.5,3.31,11.92c0,5.46-1.48,9.99-4.44,13.56c-2.95,3.57-6.86,6.16-11.72,7.74   C1441.03,1339.63,1444.1,1341,1446.87,1343.2z M1403.52,1334.2h20.26c5.64,0,10.01-1.32,13.1-3.96c3.09-2.66,4.63-6.31,4.63-10.99   c0-4.68-1.54-8.34-4.63-10.99c-3.09-2.66-7.54-3.97-13.37-3.97h-19.99V1334.2z M1438.87,1372.46c3.35-2.82,5.03-6.76,5.03-11.79   c0-5.11-1.76-9.15-5.3-12.1c-3.53-2.96-8.25-4.44-14.16-4.44h-20.92v32.57h21.32C1430.83,1376.69,1435.51,1375.28,1438.87,1372.46z   "/>
	<path class="st3" d="M1538.42,1354.86h-57.98c0.43,7.15,2.89,12.73,7.35,16.75c4.45,4.01,9.86,6.02,16.22,6.02   c5.21,0,9.55-1.21,13.03-3.64c3.49-2.42,5.93-5.66,7.36-9.73h12.96c-1.94,6.98-5.82,12.65-11.65,17.02   c-5.82,4.37-13.06,6.55-21.71,6.55c-6.89,0-13.04-1.54-18.46-4.63c-5.43-3.09-9.7-7.47-12.77-13.17   c-3.09-5.69-4.64-12.28-4.64-19.79c0-7.5,1.5-14.07,4.5-19.72c3.01-5.64,7.22-9.99,12.65-13.03c5.43-3.06,11.67-4.57,18.73-4.57   c6.89,0,12.97,1.5,18.26,4.5c5.3,3,9.38,7.12,12.25,12.38s4.3,11.19,4.3,17.8C1538.81,1349.86,1538.68,1352.3,1538.42,1354.86z    M1523.32,1333.21c-2.02-3.31-4.78-5.83-8.27-7.54c-3.48-1.73-7.35-2.59-11.58-2.59c-6.09,0-11.28,1.95-15.56,5.83   c-4.28,3.88-6.72,9.26-7.35,16.15h45.81C1526.37,1340.47,1525.35,1336.52,1523.32,1333.21z"/>
	<path class="st3" d="M1569.39,1324.01v42.75c0,3.54,0.74,6.03,2.24,7.49s4.1,2.19,7.82,2.19h8.86v10.19h-10.85   c-6.71,0-11.74-1.54-15.09-4.63c-3.36-3.09-5.03-8.17-5.03-15.23v-42.75h-9.4v-9.93h9.4v-18.26h12.05v18.26h18.92v9.93H1569.39z"/>
	<path class="st3" d="M1602.87,1330.57c3.01-5.61,7.13-9.95,12.39-13.04c5.24-3.09,11.09-4.63,17.53-4.63   c6.36,0,11.87,1.36,16.55,4.1c4.68,2.74,8.16,6.18,10.46,10.33v-13.24h12.18v72.55h-12.18v-13.5c-2.39,4.24-5.93,7.74-10.66,10.53   c-4.72,2.77-10.21,4.16-16.48,4.16c-6.45,0-12.27-1.59-17.48-4.76c-5.21-3.17-9.31-7.64-12.32-13.37c-3-5.74-4.5-12.26-4.5-19.59   C1598.37,1342.67,1599.87,1336.17,1602.87,1330.57z M1656.48,1335.93c-2.21-4.05-5.18-7.17-8.93-9.33   c-3.75-2.16-7.87-3.24-12.38-3.24c-4.5,0-8.6,1.06-12.32,3.17c-3.7,2.12-6.66,5.21-8.86,9.27c-2.21,4.05-3.31,8.83-3.31,14.29   c0,5.56,1.1,10.39,3.31,14.5c2.2,4.1,5.16,7.23,8.86,9.39c3.71,2.16,7.82,3.24,12.32,3.24c4.5,0,8.63-1.08,12.38-3.24   c3.75-2.16,6.72-5.29,8.93-9.39c2.21-4.11,3.31-8.9,3.31-14.37C1659.79,1344.75,1658.69,1339.98,1656.48,1335.93z"/>
</g>
<g>
	<path class="st5" d="M1709.76,1249.34h23.74c0,0-0.08-21.38-22.48-21.78L1709.76,1249.34z"/>
</g>
</svg>