<svg xmlns="http://www.w3.org/2000/svg" width="58.545" height="46.102" viewBox="0 0 58.545 58.545">
  <g id="noun-task-4624215" transform="translate(-96.845 -100.803)">
    <path id="Path_21684" data-name="Path 21684" d="M176.562,158.009v-9.365a2.88,2.88,0,0,1,2.881-2.881h1.441a2.881,2.881,0,0,0,0-5.763h-1.441a8.645,8.645,0,0,0-8.644,8.644v23.771a8.645,8.645,0,0,0,8.644,8.644h23.771a8.645,8.645,0,0,0,8.644-8.644v-1.441a2.881,2.881,0,0,0-5.763,0v1.441a2.88,2.88,0,0,1-2.881,2.881H179.443a2.88,2.88,0,0,1-2.881-2.881Z" transform="translate(-73.954 -34.155)" fill="#66b984"/>
    <path id="Path_21685" data-name="Path 21685" d="M283.6,131.655a2.881,2.881,0,0,0,4.077,0l5.648-5.64,3.364,3.364a5.763,5.763,0,0,0,9.724-2.946l1.023-5.1,4.79-3.724h0a5.764,5.764,0,0,0,.541-8.644l-6.483-6.483h0a5.762,5.762,0,0,0-4.077-1.678h-.36a5.761,5.761,0,0,0-4.192,2.211l-3.724,4.79-5.1,1.023a5.763,5.763,0,0,0-2.946,9.725l3.357,3.378-5.647,5.647h0a2.881,2.881,0,0,0,.007,4.077Zm13.564-18.607,5.042-6.483,6.483,6.483-6.483,5.042-1.441,7.2-10.805-10.805Z" transform="translate(-171.508 0)" fill="#66b984"/>
  </g>
</svg>
