<svg id="Group_23443" data-name="Group 23443" xmlns="http://www.w3.org/2000/svg" xmlns:xlink="http://www.w3.org/1999/xlink" width="70.827" height="70.809" viewBox="0 0 70.827 70.809">
  <defs>
    <clipPath id="clip-path">
      <rect id="Rectangle_6647" data-name="Rectangle 6647" width="70.827" height="70.809" fill="#72bc8e"/>
    </clipPath>
  </defs>
  <g id="Group_23443-2" data-name="Group 23443" clip-path="url(#clip-path)">
    <path id="Path_21701" data-name="Path 21701" d="M62.654,87.418v2.33a12.109,12.109,0,0,1-12.107,12.107H12.107A12.109,12.109,0,0,1,0,89.748V51.307A12.109,12.109,0,0,1,12.107,39.2h2.33a2.787,2.787,0,0,1,0,5.575h-2.33a6.527,6.527,0,0,0-6.532,6.532V89.748a6.53,6.53,0,0,0,6.532,6.532H50.548a6.527,6.527,0,0,0,6.532-6.532v-2.33a2.787,2.787,0,0,1,5.575,0" transform="translate(0 -31.046)" fill="#72bc8e"/>
    <path id="Path_21702" data-name="Path 21702" d="M157.3,12.654,146.811,2.17A7.4,7.4,0,0,0,141.559,0h-.424c-.082,0-.165,0-.246.01a7.45,7.45,0,0,0-5.233,2.844l-5.824,7.49A2.744,2.744,0,0,1,128.2,11.35l-7.927,1.59a7.447,7.447,0,0,0-3.809,12.566l4.818,4.851a2.745,2.745,0,0,1-.006,3.875l-8.515,8.516a2.814,2.814,0,0,0-.815,1.974,2.768,2.768,0,0,0,.822,1.97l.027.029a2.788,2.788,0,0,0,3.919-.025l8.52-8.506a2.745,2.745,0,0,1,3.881,0l4.823,4.823a7.447,7.447,0,0,0,12.566-3.809l1.791-8.93.062-.048,8.333-6.48a7.45,7.45,0,0,0,.6-11.1M143.039,28.137,141.365,36.5a2.745,2.745,0,0,1-4.633,1.4L121.565,22.739a2.745,2.745,0,0,1,1.4-4.633l8.367-1.674a2.745,2.745,0,0,0,1.628-1.006l6.494-8.347a2.745,2.745,0,0,1,4.108-.255l9.084,9.084a2.745,2.745,0,0,1-.256,4.108l-8.347,6.494a2.744,2.744,0,0,0-1.006,1.628" transform="translate(-88.663 0)" fill="#72bc8e"/>
  </g>
</svg>
