<svg xmlns="http://www.w3.org/2000/svg" width="12" height="12" viewBox="0 0 12 12">
  <path id="svgexport-3" d="M4.179,1.607A.857.857,0,0,0,3.321.75H1.607a.857.857,0,0,0-.857.857V3.321a.857.857,0,0,0,.857.857H3.321a.857.857,0,0,0,.857-.857Zm4.286,0A.857.857,0,0,0,7.607.75H5.893a.857.857,0,0,0-.857.857V3.321a.857.857,0,0,0,.857.857H7.607a.857.857,0,0,0,.857-.857Zm.857,0A.857.857,0,0,1,10.179.75h1.714a.857.857,0,0,1,.857.857V3.321a.857.857,0,0,1-.857.857H10.179a.857.857,0,0,1-.857-.857ZM12.75,5.893a.857.857,0,0,0-.857-.857H1.607a.857.857,0,0,0-.857.857v6a.857.857,0,0,0,.857.857H11.893a.857.857,0,0,0,.857-.857Z" transform="translate(-0.75 -0.75)" fill="#f5f5f5" fill-rule="evenodd"/>
</svg>
