<svg xmlns="http://www.w3.org/2000/svg" width="54.545" height="43.632" viewBox="0 0 54.545 43.632">
  <path id="Icon_awesome-video-slash" data-name="Icon awesome-video-slash" d="M54.018,39.043,49.33,35.421a2.685,2.685,0,0,0,2.489-2.651v-21.9a2.732,2.732,0,0,0-4.3-2.2l-9.341,6.443V26.8L35.455,24.7V9.528a4.074,4.074,0,0,0-4.074-4.074H10.559L3.878.289A1.369,1.369,0,0,0,1.96.528L.289,2.676A1.358,1.358,0,0,0,.528,4.585l3.111,2.4,31.816,24.6L50.668,43.347a1.369,1.369,0,0,0,1.918-.239l1.67-2.156a1.351,1.351,0,0,0-.239-1.909ZM2.727,34.108A4.074,4.074,0,0,0,6.8,38.182h24.58a4.044,4.044,0,0,0,2.523-.895L2.727,13.185Z" transform="translate(-0.002 -0.002)" fill="#fff"/>
</svg>
