<svg xmlns="http://www.w3.org/2000/svg" width="32" height="32" viewBox="0 0 32 32">
  <g id="Group_23111" data-name="Group 23111" transform="translate(-1337 -34)">
    <rect id="Rectangle_6477" data-name="Rectangle 6477" width="32" height="32" rx="16" transform="translate(1337 34)" fill="#27292b" opacity="0"/>
    <path id="svgexport-5" d="M.75,1.893A1.143,1.143,0,0,1,1.893.75H4.179A1.143,1.143,0,0,1,5.321,1.893V4.179A1.143,1.143,0,0,1,4.179,5.321H1.893A1.143,1.143,0,0,1,.75,4.179Zm5.714,0A1.143,1.143,0,0,1,7.607.75H9.893a1.143,1.143,0,0,1,1.143,1.143V4.179A1.143,1.143,0,0,1,9.893,5.321H7.607A1.143,1.143,0,0,1,6.464,4.179Zm10.286,0A1.143,1.143,0,0,0,15.607.75H13.321a1.143,1.143,0,0,0-1.143,1.143V4.179a1.143,1.143,0,0,0,1.143,1.143h2.286A1.143,1.143,0,0,0,16.75,4.179ZM.75,7.607A1.143,1.143,0,0,1,1.893,6.464H4.179A1.143,1.143,0,0,1,5.321,7.607V9.893a1.143,1.143,0,0,1-1.143,1.143H1.893A1.143,1.143,0,0,1,.75,9.893Zm10.286,0A1.143,1.143,0,0,0,9.893,6.464H7.607A1.143,1.143,0,0,0,6.464,7.607V9.893a1.143,1.143,0,0,0,1.143,1.143H9.893a1.143,1.143,0,0,0,1.143-1.143Zm1.143,0a1.143,1.143,0,0,1,1.143-1.143h2.286A1.143,1.143,0,0,1,16.75,7.607V9.893a1.143,1.143,0,0,1-1.143,1.143H13.321a1.143,1.143,0,0,1-1.143-1.143ZM5.321,13.321a1.143,1.143,0,0,0-1.143-1.143H1.893A1.143,1.143,0,0,0,.75,13.321v2.286A1.143,1.143,0,0,0,1.893,16.75H4.179a1.143,1.143,0,0,0,1.143-1.143Zm1.143,0a1.143,1.143,0,0,1,1.143-1.143H9.893a1.143,1.143,0,0,1,1.143,1.143v2.286A1.143,1.143,0,0,1,9.893,16.75H7.607a1.143,1.143,0,0,1-1.143-1.143Zm10.286,0a1.143,1.143,0,0,0-1.143-1.143H13.321a1.143,1.143,0,0,0-1.143,1.143v2.286a1.143,1.143,0,0,0,1.143,1.143h2.286a1.143,1.143,0,0,0,1.143-1.143Z" transform="translate(1344.25 41.25)" fill="#f5f5f5" fill-rule="evenodd"/>
  </g>
</svg>
